{%- comment -%}
Bootstrap Icons "file-earmark-person" (MIT, https://github.com/twbs/icons) --
Copyright (c) 2019-2024 The Bootstrap Authors. Trimmed to the path data:
the size comes from the 1em box in .menu-icon and the colour from
currentColor, so each mark takes the link colour of whichever mode is on.
{%- endcomment -%}
<svg class="menu-icon" viewBox="0 0 16 16" fill="currentColor"
     aria-hidden="true" focusable="false">
  <path d="M11 8a3 3 0 1 1-6 0 3 3 0 0 1 6 0"/>
  <path d="M14 14V4.5L9.5 0H4a2 2 0 0 0-2 2v12a2 2 0 0 0 2 2h8a2 2 0 0 0 2-2M9.5 3A1.5 1.5 0 0 0 11 4.5h2v9.255S12 12 8 12s-5 1.755-5 1.755V2a1 1 0 0 1 1-1h5.5z"/>
</svg>
